<svg xmlns="http://www.w3.org/2000/svg" viewBox="0 0 24 30" fill="none" x="0px" y="0px">
<path d="M8 10C8 9.44772 8.44771 9 9 9H11V7C11 6.44772 11.4477 6 12 6C12.5523 6 13 6.44772 13 7V9H15C15.5523 9 16 9.44772 16 10C16 10.5523 15.5523 11 15 11H13V13C13 13.5523 12.5523 14 12 14C11.4477 14 11 13.5523 11 13V11H9C8.44771 11 8 10.5523 8 10Z" fill="black"/>
<path fill-rule="evenodd" clip-rule="evenodd" d="M20 5C20 3.34315 18.6569 2 17 2H7C5.34315 2 4 3.34315 4 5V21C4 21.3565 4.18976 21.686 4.49807 21.8649C4.80639 22.0438 5.18664 22.0451 5.49614 21.8682L12 18.1518L18.5039 21.8682C18.8134 22.0451 19.1936 22.0438 19.5019 21.8649C19.8102 21.686 20 21.3565 20 21L20 5ZM17 4C17.5523 4 18 4.44772 18 5L18 19.2768L12.4961 16.1318C12.1887 15.9561 11.8113 15.9561 11.5039 16.1318L6 19.2768L6 5C6 4.44772 6.44772 4 7 4L17 4Z" fill="black"/>
</svg>
